# .PCD v0.7 - Synthetic 77 GHz mmWave Radar Point Cloud
VERSION 0.7
FIELDS x y z vx vy vr rcs snr id
SIZE 4 4 4 4 4 4 4 4 4
TYPE F F F F F F F F I
COUNT 1 1 1 1 1 1 1 1 1
WIDTH 160
HEIGHT 1
VIEWPOINT 0 0 0 1 0 0 0
POINTS 160
DATA ascii
16.295 3.460 0.712 -7.34 2.46 -6.73 15.0 49.0 98
16.252 3.692 1.085 -7.34 2.46 -6.61 15.0 49.0 98
16.095 4.153 0.742 -7.34 2.46 -6.48 15.0 48.9 98
17.107 3.788 0.258 -7.34 2.46 -6.64 15.0 48.2 98
16.913 4.059 0.260 -7.34 2.46 -6.47 15.0 48.2 98
16.276 4.725 1.082 -7.34 2.46 -6.46 15.0 48.1 98
17.900 3.671 1.842 -7.34 2.46 -6.65 15.0 47.6 98
17.021 5.122 0.260 -7.34 2.46 -6.18 15.0 47.3 98
16.997 5.124 1.453 -7.34 2.46 -6.23 15.0 47.2 98
16.687 5.879 0.254 -7.34 2.46 -6.18 15.0 46.8 98
18.649 5.020 1.855 -7.34 2.46 -6.46 15.0 46.4 98
17.611 5.903 1.012 -7.34 2.46 -6.18 15.0 46.3 98
18.400 6.059 1.418 -7.34 2.46 -6.13 15.0 45.4 98
20.574 4.015 0.396 -7.34 2.46 -6.75 15.0 45.3 98
35.959 13.426 1.901 -11.87 -4.43 -12.49 25.0 43.4 107
36.028 13.987 1.903 -11.87 -4.43 -12.66 25.0 43.0 107
38.967 12.368 2.813 -11.87 -4.43 -12.57 25.0 42.7 107
39.069 12.555 2.822 -11.87 -4.43 -12.70 25.0 42.6 107
38.816 14.388 2.838 -11.87 -4.43 -12.65 25.0 42.2 107
39.331 13.878 3.812 -11.87 -4.43 -12.61 25.0 41.9 107
14.050 -10.890 1.013 -6.98 -1.80 -4.39 15.0 41.2 24
14.638 -11.121 0.167 -6.98 -1.80 -4.48 15.0 41.2 24
4.859 0.428 -0.020 -11.10 0.00 -11.13 -15.0 41.2 0
15.207 -10.759 0.542 -6.98 -1.80 -4.63 15.0 41.1 24
4.438 -1.011 0.016 -11.10 0.00 -10.87 -15.0 40.8 0
4.326 -1.480 -0.001 -11.10 0.00 -10.68 -15.0 40.8 0
4.348 1.422 -0.009 -11.10 0.00 -10.55 -15.0 40.8 0
4.620 0.955 -0.009 -11.10 0.00 -10.94 -15.0 40.7 0
4.177 -1.454 0.009 -11.10 0.00 -10.55 -15.0 40.7 0
4.950 0.058 0.016 -11.10 0.00 -11.13 -15.0 40.7 0
5.152 -0.288 0.016 -11.10 0.00 -11.01 -15.0 40.6 0
5.055 -0.291 0.018 -11.10 0.00 -11.13 -15.0 40.6 0
14.013 -11.481 1.026 -6.98 -1.80 -4.24 15.0 40.6 24
5.127 0.129 0.011 -11.10 0.00 -11.01 -15.0 40.6 0
4.901 -0.439 0.020 -11.10 0.00 -11.06 -15.0 40.6 0
4.546 -1.179 0.021 -11.10 0.00 -10.68 -15.0 40.6 0
4.743 1.263 -0.006 -11.10 0.00 -10.82 -15.0 40.6 0
5.023 0.281 0.007 -11.10 0.00 -11.06 -15.0 40.5 0
4.390 1.541 -0.008 -11.10 0.00 -10.49 -15.0 40.5 0
5.183 0.518 0.010 -11.10 0.00 -11.15 -15.0 40.5 0
4.948 -0.721 0.020 -11.10 0.00 -10.88 -15.0 40.5 0
45.147 13.533 6.217 -11.87 -4.43 -12.43 25.0 40.4 107
26.837 6.127 2.465 -11.10 -0.00 -10.84 15.0 40.4 76
5.164 -0.836 0.026 -11.10 0.00 -11.05 -15.0 40.3 0
3.893 -1.486 0.007 -11.10 0.00 -10.37 -15.0 40.3 0
5.060 0.736 0.002 -11.10 0.00 -11.11 -15.0 40.3 0
4.624 1.319 -0.006 -11.10 0.00 -10.81 -15.0 40.3 0
15.656 -11.400 0.078 -6.98 -1.80 -4.54 15.0 40.2 24
4.644 -0.902 0.024 -11.10 0.00 -10.88 -15.0 40.1 0
45.301 13.502 6.225 -11.87 -4.43 -12.53 25.0 40.1 107
4.934 0.870 0.002 -11.10 0.00 -11.04 -15.0 40.1 0
4.411 1.743 -0.008 -11.10 0.00 -10.57 -15.0 40.1 0
27.724 5.778 2.483 -11.10 -0.00 -10.79 15.0 40.0 76
15.391 -11.868 0.067 -6.98 -1.80 -4.30 15.0 39.9 24
24.771 1.093 0.665 -11.10 -0.00 -11.04 12.0 39.9 134
5.036 -1.210 0.024 -11.10 0.00 -10.80 -15.0 39.9 0
4.952 1.008 -0.001 -11.10 0.00 -11.03 -15.0 39.9 0
24.953 0.424 0.653 -11.10 -0.00 -11.07 12.0 39.9 134
25.210 0.029 0.659 -11.10 -0.00 -11.02 12.0 39.9 134
4.143 -1.764 0.007 -11.10 0.00 -10.32 -15.0 39.9 0
24.673 1.447 0.661 -11.10 -0.00 -11.16 12.0 39.8 134
25.396 -0.798 0.649 -11.10 -0.00 -11.01 12.0 39.8 134
17.370 -11.977 0.387 -6.98 -1.80 -4.80 15.0 39.7 24
25.022 1.527 0.662 -11.10 -0.00 -11.06 12.0 39.7 134
25.106 2.077 0.670 -11.10 0.00 -11.07 12.0 39.7 105
27.180 7.126 3.756 -11.10 -0.00 -10.58 15.0 39.7 76
4.224 1.744 -0.007 -11.10 0.00 -10.23 -15.0 39.7 0
4.973 1.228 -0.003 -11.10 0.00 -10.80 -15.0 39.6 0
25.206 2.794 0.664 -11.10 0.00 -11.01 12.0 39.4 105
27.302 7.313 3.124 -11.10 -0.00 -10.68 15.0 39.4 76
4.080 -1.868 0.008 -11.10 0.00 -9.98 -15.0 39.4 0
4.863 1.360 -0.006 -11.10 0.00 -10.70 -15.0 39.3 0
14.098 -12.190 0.145 -6.98 -1.80 -4.07 15.0 39.3 24
15.183 -12.355 0.073 -6.98 -1.80 -4.30 15.0 39.3 24
4.771 -1.545 0.024 -11.10 0.00 -10.46 -15.0 39.3 0
13.932 -12.081 0.587 -6.98 -1.80 -4.07 15.0 39.3 24
4.330 2.070 -0.011 -11.10 0.00 -10.11 -15.0 39.1 0
14.159 -12.271 0.142 -6.98 -1.80 -4.13 15.0 39.1 24
26.142 -0.693 0.588 -11.10 -0.00 -11.03 12.0 39.0 133
25.158 4.393 0.655 -11.10 0.00 -10.96 12.0 39.0 129
4.852 1.446 -0.005 -11.10 0.00 -10.59 -15.0 39.0 0
25.606 4.284 1.238 -11.10 0.00 -10.92 12.0 38.9 129
27.599 8.497 3.171 -11.10 -0.00 -10.53 15.0 38.8 76
26.682 -22.741 1.841 -8.89 -3.92 -4.21 25.0 38.7 84
26.828 -0.875 0.564 -11.10 -0.00 -11.11 12.0 38.7 133
4.129 2.107 -0.013 -11.10 0.00 -9.97 -15.0 38.7 0
5.263 -1.326 0.028 -11.10 0.00 -10.60 -15.0 38.7 0
4.717 1.617 -0.004 -11.10 0.00 -10.45 -15.0 38.6 0
29.813 6.082 5.301 -11.10 -0.00 -10.74 15.0 38.6 76
27.013 -1.860 0.553 -11.10 -0.00 -11.10 12.0 38.5 133
4.807 1.846 -0.005 -11.10 0.00 -10.51 -15.0 38.2 0
14.868 -13.291 0.057 -6.98 -1.80 -4.13 15.0 38.1 24
4.312 -2.175 0.016 -11.10 0.00 -9.87 -15.0 38.1 0
33.044 1.724 1.776 -11.95 -4.42 -12.15 15.0 38.0 29
5.154 -1.651 0.026 -11.10 0.00 -10.51 -15.0 38.0 0
25.364 -23.580 1.058 -8.89 -3.92 -3.92 25.0 37.9 84
33.193 2.845 1.786 -11.95 -4.42 -12.08 15.0 37.9 29
4.619 1.978 -0.016 -11.10 0.00 -10.15 -15.0 37.7 0
41.208 22.552 4.187 -11.95 -4.42 -12.53 25.0 37.6 8
41.878 22.187 4.206 -11.95 -4.42 -12.61 25.0 37.6 8
33.774 1.087 2.543 -11.95 -4.42 -12.12 15.0 37.6 29
4.796 -1.884 0.022 -11.10 0.00 -10.28 -15.0 37.5 0
5.940 -0.144 0.021 -11.10 0.00 -10.97 -15.0 37.5 0
6.120 -0.322 0.023 -11.10 0.00 -11.07 -15.0 37.5 0
6.024 -0.429 0.025 -11.10 0.00 -11.15 -15.0 37.5 0
42.962 22.219 4.239 -11.95 -4.42 -12.56 25.0 37.5 8
26.597 -23.792 1.033 -8.89 -3.92 -4.02 25.0 37.5 84
6.012 -0.568 0.027 -11.10 0.00 -10.96 -15.0 37.5 0
5.796 0.116 0.011 -11.10 0.00 -11.13 -15.0 37.4 0
26.583 6.482 2.464 -11.10 0.00 -10.80 12.0 37.4 116
33.990 2.404 2.560 -11.95 -4.42 -12.08 15.0 37.4 29
41.221 23.024 4.214 -11.95 -4.42 -12.65 25.0 37.4 8
6.049 -0.735 0.032 -11.10 0.00 -10.96 -15.0 37.4 0
5.919 0.403 0.009 -11.10 0.00 -10.94 -15.0 37.4 0
4.631 2.256 -0.004 -11.10 0.00 -9.87 -15.0 37.3 0
5.952 0.441 0.008 -11.10 0.00 -11.07 -15.0 37.3 0
5.885 -0.915 0.030 -11.10 0.00 -10.83 -15.0 37.2 0
41.425 23.150 4.232 -11.95 -4.42 -12.45 25.0 37.2 8
26.227 6.957 2.459 -11.10 0.00 -10.80 12.0 37.2 116
4.252 2.284 -0.009 -11.10 0.00 -9.62 -15.0 37.1 0
6.072 0.778 0.006 -11.10 0.00 -11.00 -15.0 37.1 0
4.967 -2.183 0.025 -11.10 0.00 -10.23 -15.0 37.1 0
5.847 -1.098 0.030 -11.10 0.00 -10.88 -15.0 37.0 0
26.244 7.384 2.467 -11.10 0.00 -10.54 12.0 37.0 126
6.187 1.029 0.007 -11.10 0.00 -10.96 -15.0 37.0 0
45.201 23.141 5.509 -11.95 -4.42 -12.71 25.0 36.9 8
35.255 1.237 2.574 -11.95 -4.42 -11.98 15.0 36.9 29
26.647 -24.525 1.032 -8.89 -3.92 -3.72 25.0 36.9 84
5.840 -1.382 0.030 -11.10 0.00 -10.88 -15.0 36.8 0
4.509 2.272 -0.011 -11.10 0.00 -9.92 -15.0 36.7 0
6.010 1.333 0.004 -11.10 0.00 -10.70 -15.0 36.7 0
44.353 23.349 7.816 -11.95 -4.42 -12.51 25.0 36.7 8
42.862 23.942 7.714 -11.95 -4.42 -12.47 25.0 36.7 8
30.096 -0.684 1.085 -11.10 -0.00 -11.09 12.0 36.7 63
47.814 -23.390 0.494 -15.50 0.93 -14.63 25.0 36.6 58
4.826 -2.237 0.020 -11.10 0.00 -10.13 -15.0 36.6 0
42.722 24.634 6.602 -11.95 -4.42 -12.44 25.0 36.6 8
30.370 0.033 1.084 -11.10 -0.00 -11.10 12.0 36.5 63
4.351 -2.552 0.013 -11.10 0.00 -9.78 -15.0 36.5 0
48.635 -22.509 0.477 -15.50 0.93 -14.49 25.0 36.5 58
48.254 -22.015 0.493 -15.50 0.93 -14.43 25.0 36.5 58
5.859 -1.584 0.028 -11.10 0.00 -10.79 -15.0 36.5 0
5.948 1.382 0.003 -11.10 0.00 -10.77 -15.0 36.5 0
48.562 -22.128 0.494 -15.50 0.93 -14.43 25.0 36.4 58
26.907 8.462 2.509 -11.10 0.00 -10.66 12.0 36.3 126
43.977 24.206 6.677 -11.95 -4.42 -12.45 25.0 36.3 8
49.239 -23.203 1.709 -15.50 0.93 -14.42 25.0 36.3 58
4.465 2.451 -0.006 -11.10 0.00 -9.68 -15.0 36.2 0
43.244 25.013 7.829 -11.95 -4.42 -12.41 25.0 36.2 8
5.949 1.562 0.003 -11.10 0.00 -10.61 -15.0 36.2 0
44.940 24.458 6.762 -11.95 -4.42 -12.52 25.0 36.2 8
5.735 -1.744 0.028 -11.10 0.00 -10.54 -15.0 36.2 0
4.122 -2.282 -0.000 -11.10 0.00 -9.60 -15.0 36.1 0
4.788 -2.487 0.018 -11.10 0.00 -9.77 -15.0 36.0 0
26.464 9.520 1.239 -11.10 0.00 -10.43 12.0 35.8 126
5.848 1.778 0.001 -11.10 0.00 -10.71 -15.0 35.8 0
5.840 -2.125 0.030 -11.10 0.00 -10.42 -15.0 35.8 0
51.223 -23.298 1.689 -15.50 0.93 -14.49 25.0 35.6 58
3.870 2.771 0.122 -11.10 0.00 -9.06 -15.0 35.6 0
4.445 2.657 -0.004 -11.10 0.00 -9.57 -15.0 35.6 0
