# .PCD v0.7 - Synthetic 77 GHz mmWave Radar Point Cloud
VERSION 0.7
FIELDS x y z vx vy vr rcs snr id
SIZE 4 4 4 4 4 4 4 4 4
TYPE F F F F F F F F I
COUNT 1 1 1 1 1 1 1 1 1
WIDTH 160
HEIGHT 1
VIEWPOINT 0 0 0 1 0 0 0
POINTS 160
DATA ascii
15.300 -7.124 0.310 -6.63 -0.55 -5.78 15.0 46.5 22
15.400 -7.262 0.262 -6.63 -0.55 -5.86 15.0 46.2 22
30.458 -11.524 1.040 -7.15 -2.16 -5.88 25.0 46.1 78
15.012 -7.519 0.683 -6.63 -0.55 -5.80 15.0 46.0 22
15.670 -7.607 1.416 -6.63 -0.55 -5.85 15.0 45.8 22
16.165 -7.841 1.418 -6.63 -0.55 -5.62 15.0 45.6 22
32.042 -11.738 1.768 -7.15 -2.16 -5.92 25.0 45.3 78
17.580 -7.074 0.095 -6.63 -0.55 -6.00 15.0 45.3 22
33.290 -12.139 0.162 -7.15 -2.16 -6.09 25.0 45.0 78
15.148 -8.188 0.265 -6.63 -0.55 -5.50 15.0 45.0 22
17.264 -7.324 0.092 -6.63 -0.55 -5.82 15.0 44.9 22
15.190 -8.206 0.261 -6.63 -0.55 -5.62 15.0 44.8 22
22.180 2.599 0.807 -6.87 1.52 -6.66 15.0 44.6 92
21.985 2.881 0.808 -6.87 1.52 -6.61 15.0 44.6 92
22.521 2.151 0.800 -6.87 1.52 -6.61 15.0 44.6 92
33.294 -12.635 1.767 -7.15 -2.16 -6.01 25.0 44.5 78
22.578 1.859 1.297 -6.87 1.52 -6.63 15.0 44.5 92
18.067 -7.601 0.468 -6.63 -0.55 -5.93 15.0 44.5 22
32.945 -13.676 1.772 -7.15 -2.16 -5.88 25.0 44.5 78
22.383 3.410 0.274 -6.87 1.52 -6.58 15.0 44.2 92
16.817 -8.658 1.404 -6.63 -0.55 -5.68 15.0 44.0 22
23.206 2.279 0.227 -6.87 1.52 -6.82 15.0 44.0 92
23.261 3.691 0.758 -6.87 1.52 -6.47 15.0 43.5 92
23.364 3.738 1.819 -6.87 1.52 -6.52 15.0 43.4 92
23.949 3.889 1.810 -6.87 1.52 -6.61 15.0 42.9 92
25.128 2.174 0.089 -6.87 1.52 -6.73 15.0 42.7 92
25.071 2.118 0.087 -6.87 1.52 -6.63 15.0 42.6 92
24.639 4.414 0.678 -6.87 1.52 -6.31 15.0 42.3 92
25.469 2.966 0.074 -6.87 1.52 -6.73 15.0 42.3 92
4.720 0.531 -0.002 -11.10 0.00 -11.01 -15.0 41.4 0
4.536 1.467 0.015 -11.10 0.00 -10.52 -15.0 41.1 0
4.625 0.921 0.019 -11.10 0.00 -10.91 -15.0 41.0 0
4.538 1.102 0.026 -11.10 0.00 -10.89 -15.0 41.0 0
5.087 0.204 0.027 -11.10 0.00 -11.12 -15.0 40.8 0
4.386 1.490 0.017 -11.10 0.00 -10.43 -15.0 40.8 0
5.135 0.066 0.024 -11.10 0.00 -11.05 -15.0 40.8 0
5.024 0.047 0.023 -11.10 0.00 -11.04 -15.0 40.8 0
4.862 -0.165 0.022 -11.10 0.00 -11.23 -15.0 40.8 0
4.839 0.305 0.027 -11.10 0.00 -11.15 -15.0 40.8 0
4.167 -1.437 0.000 -11.10 0.00 -10.64 -15.0 40.8 0
4.874 0.242 0.023 -11.10 0.00 -11.06 -15.0 40.8 0
4.658 -1.183 0.008 -11.10 0.00 -10.87 -15.0 40.8 0
5.182 -0.393 0.021 -11.10 0.00 -11.06 -15.0 40.7 0
4.336 -1.500 0.002 -11.10 0.00 -10.51 -15.0 40.7 0
4.404 -1.074 -0.007 -11.10 0.00 -10.76 -15.0 40.7 0
4.932 -0.334 0.022 -11.10 0.00 -11.13 -15.0 40.7 0
4.631 1.306 0.025 -11.10 0.00 -10.64 -15.0 40.6 0
5.077 0.592 0.027 -11.10 0.00 -10.96 -15.0 40.6 0
4.840 0.509 0.020 -11.10 0.00 -10.93 -15.0 40.6 0
4.981 -0.673 0.018 -11.10 0.00 -10.90 -15.0 40.5 0
12.891 -9.553 0.033 -11.10 0.00 -8.95 12.0 40.5 41
4.641 -1.210 0.010 -11.10 0.00 -10.56 -15.0 40.5 0
4.203 1.555 0.022 -11.10 0.00 -10.26 -15.0 40.5 0
4.850 0.867 0.026 -11.10 0.00 -10.97 -15.0 40.4 0
4.903 0.671 -0.349 -11.10 0.00 -10.82 -15.0 40.4 0
9.918 -9.466 0.019 -11.10 0.00 -8.22 12.0 40.4 30
12.882 -9.421 0.030 -11.10 0.00 -8.93 12.0 40.4 41
4.962 -0.809 0.016 -11.10 0.00 -10.91 -15.0 40.4 0
4.149 -1.609 -0.000 -11.10 0.00 -10.28 -15.0 40.3 0
5.022 -0.971 0.016 -11.10 0.00 -10.85 -15.0 40.2 0
4.142 1.755 0.018 -11.10 0.00 -10.31 -15.0 40.0 0
4.954 -1.196 0.013 -11.10 0.00 -10.86 -15.0 39.9 0
4.174 -1.775 0.002 -11.10 0.00 -10.20 -15.0 39.9 0
11.030 -9.904 0.196 -11.10 0.00 -8.21 12.0 39.7 30
12.284 -10.250 0.068 -11.10 0.00 -8.63 12.0 39.7 41
5.027 -1.372 0.018 -11.10 0.00 -10.72 -15.0 39.7 0
4.020 1.866 0.015 -11.10 0.00 -10.10 -15.0 39.5 0
4.062 -1.939 0.004 -11.10 0.00 -9.99 -15.0 39.4 0
16.836 -9.913 0.067 -11.10 0.00 -9.51 12.0 39.4 46
5.464 1.010 0.025 -11.10 0.00 -10.89 -15.0 39.4 0
16.582 -10.060 0.065 -11.10 0.00 -9.41 12.0 39.3 46
5.129 1.009 0.027 -11.10 0.00 -10.82 -15.0 39.2 0
14.469 -10.576 0.216 -11.10 0.00 -9.10 12.0 39.1 54
3.982 2.075 0.016 -11.10 0.00 -9.90 -15.0 39.0 0
5.082 1.180 0.023 -11.10 0.00 -10.79 -15.0 39.0 0
15.583 -10.455 0.130 -11.10 0.00 -9.18 12.0 38.9 46
12.756 -10.506 0.335 -11.10 0.00 -8.53 12.0 38.8 41
5.052 1.533 0.026 -11.10 0.00 -10.84 -15.0 38.7 0
16.100 -10.566 0.073 -11.10 0.00 -9.45 12.0 38.7 46
10.763 -10.548 0.512 -11.10 0.00 -8.04 12.0 38.6 30
13.744 -10.887 0.264 -11.10 0.00 -8.79 12.0 38.5 54
14.283 -11.247 0.215 -11.10 0.00 -8.84 12.0 38.5 54
12.202 -10.947 0.372 -11.10 0.00 -8.21 12.0 38.4 41
12.240 -10.774 0.400 -11.10 0.00 -8.22 12.0 38.4 41
4.852 1.528 0.025 -11.10 0.00 -10.63 -15.0 38.4 0
17.783 -10.464 0.879 -11.10 0.00 -9.65 12.0 38.3 105
5.128 -1.482 0.011 -11.10 0.00 -10.68 -15.0 38.3 0
11.001 -11.003 0.830 -11.10 0.00 -8.07 12.0 38.1 30
4.333 -2.220 0.015 -11.10 0.00 -9.90 -15.0 38.1 0
4.673 -2.002 0.009 -11.10 0.00 -10.22 -15.0 38.1 0
17.622 -10.844 0.880 -11.10 0.00 -9.48 12.0 38.1 105
15.158 -10.974 1.002 -11.10 0.00 -8.87 12.0 38.1 54
16.036 -11.168 0.509 -11.10 0.00 -9.30 12.0 38.0 46
5.320 1.742 0.028 -11.10 0.00 -10.34 -15.0 38.0 0
5.106 -1.695 0.012 -11.10 0.00 -10.47 -15.0 37.9 0
4.611 -2.141 0.007 -11.10 0.00 -10.18 -15.0 37.9 0
16.871 -11.085 0.454 -11.10 0.00 -9.41 12.0 37.8 46
5.971 0.015 0.021 -11.10 0.00 -11.06 -15.0 37.6 0
6.006 0.124 0.022 -11.10 0.00 -11.30 -15.0 37.6 0
5.996 -0.158 0.021 -11.10 0.00 -11.10 -15.0 37.6 0
4.860 1.829 0.024 -11.10 0.00 -10.28 -15.0 37.6 0
4.130 2.362 0.021 -11.10 0.00 -9.67 -15.0 37.6 0
6.152 0.296 0.023 -11.10 0.00 -11.03 -15.0 37.6 0
5.931 -0.230 0.018 -11.10 0.00 -11.23 -15.0 37.5 0
17.954 -11.167 0.381 -11.10 0.00 -9.47 12.0 37.5 105
5.809 0.460 0.025 -11.10 0.00 -11.07 -15.0 37.5 0
6.039 -0.360 0.018 -11.10 0.00 -11.17 -15.0 37.4 0
6.121 0.725 0.026 -11.10 0.00 -11.00 -15.0 37.4 0
6.013 -0.829 0.016 -11.10 0.00 -11.13 -15.0 37.3 0
6.137 0.975 0.029 -11.10 0.00 -11.08 -15.0 37.2 0
5.734 -0.809 0.013 -11.10 0.00 -10.94 -15.0 37.1 0
4.745 2.032 0.019 -11.10 0.00 -10.20 -15.0 37.1 0
5.998 1.094 0.029 -11.10 0.00 -10.98 -15.0 37.0 0
5.767 -0.993 0.015 -11.10 0.00 -10.66 -15.0 36.9 0
5.919 1.353 0.028 -11.10 0.00 -10.65 -15.0 36.8 0
5.805 -1.354 0.015 -11.10 0.00 -10.70 -15.0 36.7 0
4.337 -2.351 0.026 -11.10 0.00 -9.66 -15.0 36.7 0
4.831 -2.245 0.017 -11.10 0.00 -10.05 -15.0 36.6 0
4.742 2.289 0.015 -11.10 0.00 -10.15 -15.0 36.5 0
5.737 1.628 0.027 -11.10 0.00 -10.78 -15.0 36.5 0
5.658 -1.633 0.012 -11.10 0.00 -10.47 -15.0 36.4 0
5.953 1.800 0.026 -11.10 0.00 -10.43 -15.0 36.1 0
4.533 -2.303 0.020 -11.10 0.00 -9.94 -15.0 36.1 0
5.755 -1.778 0.015 -11.10 0.00 -10.54 -15.0 36.1 0
4.817 2.452 0.017 -11.10 0.00 -9.92 -15.0 36.1 0
4.245 2.586 0.016 -11.10 0.00 -9.58 -15.0 36.0 0
3.074 -2.504 0.024 -11.10 0.00 -8.54 -15.0 35.8 0
5.681 -2.140 0.014 -11.10 0.00 -10.52 -15.0 35.7 0
5.750 2.171 0.023 -11.10 0.00 -10.43 -15.0 35.7 0
4.686 -2.594 0.024 -11.10 0.00 -9.59 -15.0 35.6 0
4.570 2.496 0.016 -11.10 0.00 -9.64 -15.0 35.5 0
2.753 -2.596 0.020 -11.10 0.00 -8.11 -15.0 35.5 0
4.084 -2.573 0.017 -11.10 0.00 -9.37 -15.0 35.4 0
4.233 -2.682 0.019 -11.10 0.00 -9.39 -15.0 35.3 0
5.569 2.174 0.024 -11.10 0.00 -10.54 -15.0 35.3 0
2.850 -2.683 0.018 -11.10 0.00 -8.14 -15.0 35.3 0
5.747 -2.119 0.016 -11.10 0.00 -10.25 -15.0 35.3 0
4.154 2.697 0.015 -11.10 0.00 -9.19 -15.0 35.3 0
2.860 2.583 0.007 -11.10 0.00 -8.17 -15.0 35.2 0
3.496 -2.850 0.015 -11.10 0.00 -8.57 -15.0 35.1 0
6.837 0.405 0.022 -11.10 0.00 -11.17 -15.0 35.1 0
6.934 -0.078 0.018 -11.10 0.00 -11.23 -15.0 35.1 0
6.919 0.112 0.018 -11.10 0.00 -11.11 -15.0 35.1 0
3.201 2.800 0.009 -11.10 0.00 -8.35 -15.0 35.1 0
6.990 -0.365 0.019 -11.10 0.00 -11.08 -15.0 35.0 0
6.919 0.338 0.020 -11.10 0.00 -11.19 -15.0 35.0 0
4.523 -2.687 0.021 -11.10 0.00 -9.45 -15.0 35.0 0
6.962 0.502 0.025 -11.10 0.00 -11.03 -15.0 35.0 0
6.964 -0.623 0.014 -11.10 0.00 -11.07 -15.0 34.9 0
5.594 -2.351 0.021 -11.10 0.00 -10.23 -15.0 34.9 0
6.851 0.845 0.031 -11.10 0.00 -10.87 -15.0 34.9 0
5.666 2.428 0.023 -11.10 0.00 -10.09 -15.0 34.8 0
4.707 2.783 0.014 -11.10 0.00 -9.68 -15.0 34.8 0
61.738 -20.217 0.197 -15.56 0.58 -14.95 25.0 34.8 55
7.167 -0.918 0.015 -11.10 0.00 -11.17 -15.0 34.8 0
4.015 -2.871 0.026 -11.10 0.00 -9.16 -15.0 34.7 0
6.803 1.301 0.029 -11.10 0.00 -11.05 -15.0 34.7 0
3.822 -2.999 0.030 -11.10 0.00 -8.67 -15.0 34.7 0
63.585 -17.721 0.171 -15.56 0.58 -15.05 25.0 34.7 55
6.942 -1.062 0.016 -11.10 0.00 -11.05 -15.0 34.6 0
